# xmcd
#
# Track frame offsets:
# 150
# 9477
# 26705
# 37089
# 49564
# 65924
# 76409
# 89687
# 102440
# 115425
# 133010
# 147440
# 161788
# 171851
# 184780
# 194978
# 207765
# 223071
# 234100
# 246862
#
# Disc length: 3449 seconds
#
#
# Revision: 0
# Processed by: cddbd v1.5.2PL0 Copyright (c) Steve Scherf et al.
# Submitted via: FreeRIP 2.944 
#
DISCID=310d7714
DTITLE=Leo Canhoto and Robertinho - As 20 mais
DYEAR=2006
DGENRE=Country
TTITLE0=A Gaivota
TTITLE1=O último julgamento
TTITLE2=Apartamento 37
TTITLE3=O presidente eo lavrador
TTITLE4=Meu velho pai
TTITLE5=Lição de moral
TTITLE6=A colina do amor
TTITLE7=Infeno cruel
TTITLE8=Vou tomar um pingão
TTITLE9=Jack matador
TTITLE10=Disco voador
TTITLE11=Passaporte para o azilo
TTITLE12=Meu irmão da roça
TTITLE13=Mundo velho sem porteira
TTITLE14=O lavrador e o operário
TTITLE15=Eu a dinha
TTITLE16=Delegado lobo negro
TTITLE17=Triste calado
TTITLE18=Paixão e lágrimas
TTITLE19=Fofinha
EXTD=
EXTT0=
EXTT1=
EXTT2=
EXTT3=
EXTT4=
EXTT5=
EXTT6=
EXTT7=
EXTT8=
EXTT9=
EXTT10=
EXTT11=
EXTT12=
EXTT13=
EXTT14=
EXTT15=
EXTT16=
EXTT17=
EXTT18=
EXTT19=
PLAYORDER=
